<svg width="24" height="24" viewBox="0 0 24 24" fill="none" xmlns="http://www.w3.org/2000/svg">
<path fill-rule="evenodd" clip-rule="evenodd" d="M9.34005 18.9L21.0701 7.17C21.8727 6.42211 22.203 5.29577 21.9316 4.23284C21.6601 3.16991 20.8301 2.33991 19.7672 2.06845C18.7043 1.797 17.5779 2.12738 16.8301 2.93L5.07005 14.69C4.99484 14.7673 4.93088 14.8548 4.88005 14.95L2.10005 20.56C1.94803 20.8703 1.96693 21.237 2.15005 21.53C2.33317 21.823 2.65455 22.0007 3.00005 22C3.16505 21.9961 3.32651 21.9515 3.47005 21.87L9.08005 19.09C9.1752 19.0392 9.26273 18.9752 9.34005 18.9ZM21.0001 22C21.5523 22 22.0001 21.5523 22.0001 21C22.0001 20.4477 21.5523 20 21.0001 20H12.0001C11.4478 20 11.0001 20.4477 11.0001 21C11.0001 21.5523 11.4478 22 12.0001 22H21.0001ZM16.3201 9.09L14.9101 7.68L6.63005 16L5.24005 18.8L8.00005 17.37L16.3201 9.09ZM18.9651 3.99874C19.2392 3.99874 19.5013 4.11127 19.6901 4.31C19.8849 4.50287 19.9921 4.76731 19.9864 5.04144C19.9807 5.31557 19.8627 5.57535 19.6601 5.76L17.7301 7.68L16.3201 6.27L18.2401 4.31C18.4288 4.11127 18.6909 3.99874 18.9651 3.99874Z" fill="#231F20"/>
</svg>
