<svg width="22" height="22" viewBox="0 0 22 22" fill="none" xmlns="http://www.w3.org/2000/svg">
<path d="M4.125 15.125V4.125C4.125 2.6082 5.3582 1.375 6.875 1.375H17.875C19.3918 1.375 20.625 2.6082 20.625 4.125V12.6113C20.625 13.3418 20.3371 14.0422 19.8215 14.5578L17.3078 17.0715C16.7922 17.5871 16.0918 17.875 15.3613 17.875H6.875C5.3582 17.875 4.125 16.6418 4.125 15.125ZM11.6875 5.5C11.3094 5.5 11 5.80937 11 6.1875V8.25H8.9375C8.55937 8.25 8.25 8.55937 8.25 8.9375V10.3125C8.25 10.6906 8.55937 11 8.9375 11H11V13.0625C11 13.4406 11.3094 13.75 11.6875 13.75H13.0625C13.4406 13.75 13.75 13.4406 13.75 13.0625V11H15.8125C16.1906 11 16.5 10.6906 16.5 10.3125V8.9375C16.5 8.55937 16.1906 8.25 15.8125 8.25H13.75V6.1875C13.75 5.80937 13.4406 5.5 13.0625 5.5H11.6875ZM12.7188 19.9375C13.2902 19.9375 13.75 20.3973 13.75 20.9688C13.75 21.5402 13.2902 22 12.7188 22H5.84375C2.6168 22 0 19.3832 0 16.1562V6.53125C0 5.95977 0.459766 5.5 1.03125 5.5C1.60273 5.5 2.0625 5.95977 2.0625 6.53125V16.1562C2.0625 18.2445 3.75547 19.9375 5.84375 19.9375H12.7188Z" fill="#33CC99"/>
</svg>
